<?xml version="1.0" standalone="no"?>
<!DOCTYPE svg PUBLIC "-//W3C//DTD SVG 20010904//EN"
 "http://www.w3.org/TR/2001/REC-SVG-20010904/DTD/svg10.dtd">
<svg version="1.0" xmlns="http://www.w3.org/2000/svg"
 width="437.000000pt" height="437.000000pt" viewBox="0 0 437.000000 437.000000"
 preserveAspectRatio="xMidYMid meet">
<metadata>
Created by potrace 1.14, written by Peter Selinger 2001-2017
</metadata>
<g transform="translate(0.000000,437.000000) scale(0.100000,-0.100000)"
fill="#000000" stroke="none">
<path d="M2070 4140 c-214 -28 -417 -114 -573 -243 -204 -170 -331 -376 -390
-632 -19 -85 -21 -126 -24 -765 -3 -552 -6 -681 -17 -710 -8 -19 -17 -48 -21
-64 -3 -16 -15 -41 -26 -54 -10 -14 -19 -30 -19 -36 0 -6 -23 -63 -51 -125
-56 -126 -99 -278 -99 -351 0 -58 24 -132 62 -188 33 -47 84 -77 195 -113 l72
-23 53 -89 c154 -260 392 -443 678 -523 117 -32 345 -44 468 -24 485 77 871
478 931 965 15 124 15 1876 0 2000 -58 475 -424 871 -888 961 -96 18 -266 25
-351 14z m501 -390 c7 0 4 -8 -6 -18 -17 -16 -21 -16 -35 -2 -13 12 -14 17 -3
23 7 4 13 16 14 25 0 12 3 11 9 -5 5 -13 15 -23 21 -23z m-366 19 c10 -15 -1
-23 -20 -15 -9 3 -13 10 -10 16 8 13 22 13 30 -1z m639 -103 c96 -73 81 -236
-27 -293 -38 -20 -123 -21 -157 -3 l-25 13 40 14 c71 24 115 84 115 157 0 35
-15 86 -28 96 -4 3 -16 16 -27 29 l-20 24 47 -5 c30 -4 61 -15 82 -32z m-1491
-27 c-17 -17 -37 -1 -22 17 8 10 15 12 23 4 7 -7 7 -13 -1 -21z m1321 -530
c-8 -14 -34 -11 -34 4 0 8 3 17 7 20 9 9 34 -13 27 -24z m-1428 -124 c14 -13
14 -17 0 -31 -15 -14 -17 -14 -32 0 -12 13 -13 18 -2 30 16 19 16 19 34 1z
m552 -19 c1 -2 -11 -17 -28 -34 -36 -36 -38 -65 -9 -142 11 -30 24 -77 28
-103 7 -42 5 -50 -13 -63 -11 -8 -26 -14 -32 -14 -14 0 -51 132 -58 205 -3 28
-2 76 1 109 l6 58 51 -7 c28 -3 52 -8 54 -9z m182 -38 l51 -12 -21 -20 c-11
-12 -30 -32 -41 -46 -11 -14 -18 -20 -16 -15 3 6 -5 32 -17 58 -13 26 -20 47
-15 47 4 0 30 -5 59 -12z m-100 -18 c16 -8 46 -87 55 -139 3 -22 18 -23 40 -6
13 11 16 18 8 21 -15 7 37 85 71 107 23 15 37 14 212 -21 l187 -38 17 -49 c35
-101 35 -94 -3 -110 -18 -8 -44 -11 -55 -8 -15 3 -22 1 -22 -9 0 -22 -119 -85
-193 -102 -74 -17 -100 -31 -125 -67 -15 -21 -15 -22 4 -14 10 5 89 12 174 16
85 4 164 10 176 14 20 6 21 5 11 -48 -10 -54 -11 -56 -51 -67 -23 -6 -94 -14
-158 -17 -149 -7 -190 6 -265 86 -67 71 -69 53 -3 -21 56 -62 98 -83 189 -94
62 -7 62 -7 59 -37 l-3 -31 -63 3 c-91 4 -134 19 -279 102 -131 74 -144 84
-138 103 2 6 9 30 15 53 6 24 18 44 28 47 10 3 33 20 52 37 29 27 32 32 17 41
-10 5 -17 21 -17 41 0 18 -9 56 -20 85 -23 59 -25 85 -10 113 12 21 58 26 90
9z m1218 -47 c4 -38 10 -35 -110 -37 -87 -2 -103 5 -77 31 8 8 8 13 0 17 -31
19 -4 27 87 24 l97 -3 3 -32z m-93 -92 c-5 -24 -3 -29 18 -35 27 -6 41 -48 24
-65 -14 -14 -87 -14 -87 -2 0 6 5 13 10 16 24 15 -6 25 -74 25 -86 0 -112 14
-102 53 6 26 8 26 109 30 56 1 103 4 105 5 2 1 1 -11 -3 -27z m-1549 -162 c10
-17 -13 -36 -27 -22 -12 12 -4 33 11 33 5 0 12 -5 16 -11z m1588 -4 c4 -11 -2
-15 -27 -15 -18 0 -49 -4 -70 -9 -39 -9 -53 -1 -43 24 8 22 132 21 140 0z
m-174 -25 c0 -11 -7 -20 -15 -20 -17 0 -18 2 -9 24 9 23 24 20 24 -4z m217
-27 c-12 -12 -251 -43 -260 -34 -5 5 30 14 80 21 48 6 93 13 98 15 19 6 88 5
82 -2z m-80 -68 c-23 -20 -38 -25 -80 -24 -43 0 -105 14 -87 19 11 3 166 28
180 28 9 1 4 -8 -13 -23z m98 2 c-11 -7 -41 -33 -66 -59 -29 -30 -56 -48 -70
-48 -21 0 -18 5 26 51 52 53 76 68 110 68 l20 0 -20 -12z m-265 -47 c8 -5 10
-10 4 -10 -7 0 -22 9 -35 21 -19 16 -20 18 -4 10 11 -6 27 -15 35 -21z m334
-12 c8 -22 4 -38 -22 -90 -30 -62 -42 -75 -129 -156 -36 -33 -43 -46 -43 -77
l0 -38 -67 6 c-38 4 -83 7 -101 7 -30 0 -33 2 -30 28 2 21 9 28 31 30 l28 3
-30 28 c-45 42 -75 176 -52 234 l11 28 40 -21 c22 -11 38 -25 35 -30 -4 -6 0
-10 8 -10 17 0 53 -38 62 -67 11 -39 28 -27 22 16 -4 34 -3 38 14 34 13 -4 18
-11 14 -23 -17 -52 83 -51 128 2 15 18 27 35 27 39 0 14 -42 -4 -66 -27 -24
-25 -61 -34 -48 -11 68 116 145 160 168 95z m-192 -384 c78 -13 21 -25 -108
-23 -103 2 -134 6 -134 16 0 10 24 13 103 13 56 0 119 -3 139 -6z m-526 -55
c10 -17 -13 -36 -27 -22 -12 12 -4 33 11 33 5 0 12 -5 16 -11z m297 -56 c-7
-2 -19 -2 -25 0 -7 3 -2 5 12 5 14 0 19 -2 13 -5z m142 -23 c0 -21 -5 -26 -32
-28 -31 -3 -33 -1 -33 28 0 29 2 31 33 28 27 -2 32 -7 32 -28z m-178 4 c-3 -3
-12 -4 -19 -1 -8 3 -5 6 6 6 11 1 17 -2 13 -5z m-817 -734 c8 -15 7 -27 -4
-47 -8 -16 -15 -23 -16 -17 0 7 -9 14 -20 17 -22 6 -27 36 -8 55 18 18 36 15
48 -8z m1336 -173 c-31 -109 -114 -280 -138 -285 -9 -2 -35 2 -57 8 l-41 11 0
172 c0 157 2 173 18 175 9 1 67 12 127 25 132 29 130 32 91 -106z m-1216 64
c0 -3 -9 -66 -21 -138 l-22 -133 -29 0 c-22 0 -28 5 -28 20 0 21 49 250 56
262 5 7 44 -2 44 -11z m489 -22 c78 -13 94 -24 67 -45 -14 -10 -48 -14 -118
-14 -61 0 -98 -4 -98 -10 0 -20 40 -89 72 -125 32 -37 95 -75 124 -75 13 0 14
-3 4 -15 -17 -21 -70 -19 -132 5 -60 23 -72 24 -63 10 22 -36 161 -76 193 -56
7 4 12 2 12 -4 0 -18 -52 -32 -102 -27 -26 2 -71 16 -99 31 -29 14 -53 25 -55
23 -6 -6 49 -55 81 -72 l30 -17 -39 6 c-28 4 -51 17 -81 46 -46 45 -61 51 -44
18 6 -13 -17 5 -52 39 -61 59 -67 62 -127 69 l-64 7 6 31 c4 17 12 61 18 97
l11 67 76 -4 c49 -3 93 0 126 10 61 18 167 20 254 5z m-584 -489 c0 -18 -6
-26 -23 -28 -13 -2 -25 3 -28 12 -10 26 4 48 28 44 17 -2 23 -10 23 -28z"/>
<path d="M1836 2901 c-16 -3 -31 -12 -34 -20 -4 -11 2 -13 27 -8 28 6 34 3 51
-26 l20 -32 0 32 c0 17 -7 39 -16 47 -8 9 -16 15 -17 15 -1 -1 -15 -4 -31 -8z"/>
</g>
</svg>
